<svg xmlns="http://www.w3.org/2000/svg" width="144" height="36" viewBox="0 0 144 36" fill="none"><path d="M33.9915 10.99C33.9915 9.40198 34.0066 7.80886 33.9965 6.22086C33.9864 5.01705 33.2537 4.40746 32.1067 4.62773C31.7075 4.70457 31.3134 4.79678 30.9193 4.89411C30.6009 4.97095 30.4392 4.94533 30.4544 4.52016C30.4898 3.41881 30.4544 2.31233 30.4847 1.20585C30.51 0.314522 29.843 -0.192613 29.0345 0.0686384C27.7056 0.50918 26.3615 0.872883 25.0628 1.38514C22.6425 2.33794 20.4242 3.60834 18.6051 5.53443C17.9937 6.185 17.4884 6.91753 16.9932 7.69104C16.877 7.51687 16.7759 7.37856 16.6799 7.23513C15.6744 5.7086 14.401 4.45869 12.8952 3.44442C10.4749 1.80519 7.78666 0.821658 4.9873 0.0942513C4.01208 -0.161878 3.50172 0.237684 3.50678 1.25708C3.51183 2.38917 3.50172 3.52638 3.51183 4.65847C3.51688 4.94533 3.44614 5.01705 3.16317 4.93509C2.78925 4.82751 2.40017 4.77629 2.0212 4.68408C0.727631 4.37161 0.015159 4.91972 0.010106 6.25671C0.010106 13.121 0.015159 19.9801 0 26.8444C0 27.9201 0.459822 28.627 1.41484 29.0522C4.482 30.4199 7.56433 31.7569 10.6012 33.181C11.8088 33.7496 13.1176 34.0621 14.1686 35.0661C15.6794 36.5055 19.0296 36.2699 20.4343 34.436C20.5404 34.2977 20.6516 34.1645 20.8486 34.1492C21.2024 34.1235 21.5156 33.9647 21.834 33.8213C25.366 32.2487 28.893 30.6607 32.4301 29.1034C33.5064 28.6321 34.0016 27.8586 33.9965 26.6702C33.9864 21.4452 33.9915 16.2201 33.9915 10.99ZM21.6167 6.29257C23.4156 4.88386 25.4317 3.91057 27.6197 3.29074C27.938 3.19853 28.0239 3.26001 28.0087 3.58785C27.9885 4.13084 27.9835 4.67896 28.0037 5.22195C28.0138 5.51394 27.9077 5.62664 27.6399 5.69323C25.9168 6.12865 24.2746 6.7741 22.698 7.60908C21.1417 8.43381 19.7471 9.46345 18.5091 10.7236C18.3575 10.8773 18.2059 11.0361 18.0543 11.1949C18.7112 9.14073 19.9795 7.57322 21.6167 6.29257ZM5.95242 3.49052C5.95242 3.29586 5.97264 3.17804 6.21518 3.24976C9.60068 4.28452 12.6375 5.86228 14.8053 8.818C15.3257 9.52492 15.7047 10.3138 15.9675 11.241C13.2793 8.33136 10.0049 6.67164 6.35161 5.69323C6.04338 5.61127 5.93221 5.48833 5.94737 5.16048C5.97264 4.60724 5.95748 4.04888 5.95242 3.49052ZM18.2716 32.9812C17.4076 33.3654 16.5182 33.3654 15.6491 33.0119C15.1741 32.8173 14.9013 32.4741 14.9114 31.8952C14.9366 29.9845 14.9215 28.0738 14.9215 26.1016C16.2555 26.6958 17.5339 26.7009 18.8173 26.1631C19.1711 26.0145 19.0447 26.3219 19.0447 26.4448C19.0599 27.9611 19.0599 29.4774 19.0649 30.9885C19.0649 31.2395 19.0245 31.4957 19.0649 31.7364C19.171 32.3972 18.7921 32.7507 18.2716 32.9812ZM14.9215 20.6819C16.3111 21.4093 17.645 21.4144 19.0447 20.687C19.0447 21.4861 19.0447 22.2392 19.0447 22.9922C19.0447 23.1356 18.9336 23.1817 18.8376 23.2534C17.9684 23.8681 16.1039 23.8989 15.2196 23.3149C15.063 23.2125 14.9114 23.11 14.9164 22.8744C14.9316 22.1674 14.9215 21.4657 14.9215 20.6819ZM31.1719 12.0708C27.8521 12.6087 24.7799 13.8279 21.9401 15.6515C21.0204 16.2457 20.1867 16.9475 19.3934 17.7159C18.0948 18.9761 15.9169 18.9863 14.6183 17.7313C11.8442 15.0471 8.49913 13.4744 4.84582 12.496C4.14345 12.3065 3.43603 12.163 2.71851 12.0708C2.46586 12.0401 2.40522 11.9428 2.41028 11.7123C2.41533 10.4162 2.41533 9.12024 2.40522 7.82422C2.40522 7.62444 2.44059 7.51687 2.66798 7.55785C5.78062 8.10597 8.76189 9.03827 11.44 10.7851C13.8755 12.3782 15.7047 14.4836 16.6648 17.301C16.7203 17.47 16.786 17.593 16.9882 17.5981C17.1852 17.5981 17.256 17.4854 17.3166 17.3164C18.3525 14.3299 20.308 12.1221 22.9507 10.4982C25.4519 8.96144 28.1906 8.08547 31.0456 7.55273C31.5761 7.4554 31.5761 7.46564 31.5761 8.024C31.5761 8.59773 31.5761 9.17146 31.5761 9.74519C31.5761 10.3497 31.566 10.9541 31.5812 11.5535C31.5863 11.8762 31.5206 12.0145 31.1719 12.0708Z" fill="#027A36"></path><path d="M54.921 10.8322C53.8095 10.8322 52.8136 11.0688 51.9737 11.5369C51.1136 12.0252 50.3139 12.7651 49.5947 13.802V3.08054C48.4228 3.37248 47.2308 3.62919 46.0036 3.86074C44.7713 4.11242 43.524 4.32886 42.2515 4.52517V4.95302C42.9355 5.01342 43.4033 5.28524 43.6598 5.77349C43.9112 6.26175 44.0521 7.33389 44.0521 9.03524V24.0352C44.0521 27.1007 43.8962 29.1141 43.6044 30.0302C43.3077 30.9715 42.7595 31.5956 42 31.9279L42.0201 32.3557C42.7595 32.2953 43.4435 32.2399 44.0672 32.1997C44.6908 32.1795 45.2944 32.1594 45.8828 32.1594C46.1343 32.1594 46.4109 32.1594 46.7027 32.1594C46.9944 32.1795 47.4269 32.1997 48.0305 32.2399L48.8704 29.2299C49.826 30.5185 50.8018 31.4748 51.7775 32.0839C52.7331 32.6879 53.7692 33 54.8405 33C57.3201 33 59.347 31.9077 60.9515 29.7181C62.5509 27.5487 63.3506 24.755 63.3506 21.3574C63.3506 18.2919 62.5509 15.75 60.9716 13.7768C59.3672 11.8087 57.3604 10.8322 54.921 10.8322ZM56.4047 28.5856C55.7006 30.1107 54.745 30.8708 53.553 30.8708C52.3056 30.8708 51.35 30.0906 50.666 28.505C49.982 26.9446 49.6299 24.6946 49.6299 21.745C49.6299 18.7953 49.9618 16.5302 50.6257 14.9497C51.2896 13.3691 52.2453 12.5839 53.4775 12.5839C54.8053 12.5839 55.8012 13.3842 56.4651 14.9849C57.1089 16.5856 57.4408 19.0067 57.4408 22.2685C57.4358 24.9513 57.0837 27.0604 56.4047 28.5856Z" fill="#09331A"></path><path d="M74.984 10.8725C72.1172 10.8725 69.7734 11.8893 67.9979 13.8977C66.2024 15.9111 65.3071 18.5638 65.3071 21.8456C65.3071 25.047 66.2074 27.7047 68.018 29.8138C69.8337 31.943 72.1172 33 74.8683 33C77.7201 33 80.0388 31.943 81.8544 29.854C83.6701 27.7651 84.5654 25.0872 84.5654 21.7852C84.5654 18.5638 83.6852 15.9262 81.9098 13.8926C80.1343 11.8893 77.8107 10.8725 74.984 10.8725ZM77.6547 29.1896C77.0109 30.9262 76.0956 31.7869 74.9035 31.7869C73.7317 31.7869 72.8364 30.906 72.1926 29.1493C71.5488 27.4128 71.2169 24.9312 71.2169 21.7097C71.2169 18.604 71.5287 16.2232 72.1725 14.5621C72.8163 12.901 73.7166 12.0805 74.9035 12.0805C76.1157 12.0805 77.0311 12.901 77.6749 14.5419C78.2985 16.203 78.6104 18.604 78.6104 21.75C78.6154 24.9916 78.2985 27.4732 77.6547 29.1896Z" fill="#09331A"></path><path d="M109.743 9.40772C110.543 9.40772 111.227 9.09564 111.796 8.47148C112.364 7.84732 112.636 7.08221 112.636 6.20638C112.636 5.33054 112.364 4.58557 111.796 3.98154C111.227 3.37752 110.548 3.08054 109.743 3.08054C108.944 3.08054 108.28 3.37248 107.752 3.98154C107.224 4.58557 106.952 5.33054 106.952 6.20638C106.952 7.12248 107.224 7.88758 107.752 8.49161C108.28 9.09564 108.944 9.40772 109.743 9.40772Z" fill="#09331A"></path><path d="M113.043 30.151C112.771 29.2148 112.63 27.2013 112.63 24.1158V10.8725C111.323 11.1644 110.035 11.4211 108.803 11.6527C107.571 11.8842 106.343 12.1007 105.151 12.2768V12.7651C105.836 12.8255 106.323 13.0973 106.575 13.5654C106.826 14.0336 106.947 15.1107 106.947 16.7869V24.0302C106.947 27.0956 106.791 29.1091 106.499 30.0252C106.328 30.5789 106.067 31.0168 105.725 31.3591C105.529 31.2332 105.353 31.0872 105.192 30.906C104.84 30.5537 104.664 30.2416 104.664 29.9899C104.664 29.9295 104.528 29.5973 104.271 29.0134C104 28.4295 103.763 27.9211 103.587 27.4681L101.988 23.7181C101.148 21.7248 100.348 20.4564 99.5888 19.9077C98.8293 19.3792 97.753 19.1074 96.3899 19.1074H95.9976C97.3456 17.3507 98.7689 15.8456 100.233 14.6175C101.696 13.3893 103.24 12.4279 104.86 11.7081V11.2399H104.744C102.813 11.3356 101.369 11.396 100.429 11.396C99.9207 11.396 99.3725 11.3758 98.7689 11.3557C98.1654 11.3356 97.3254 11.2953 96.234 11.2399V11.7081C96.6817 11.844 97.0136 12.0604 97.2701 12.3121C97.5216 12.5638 97.6423 12.8607 97.6423 13.193C97.6423 13.5654 97.5467 13.953 97.3305 14.406C97.1142 14.8591 96.8225 15.307 96.4302 15.755L93.4074 19.5252V3.08054C92.2959 3.35235 91.1038 3.60403 89.8565 3.8406C88.6092 4.09228 87.3015 4.30872 85.9334 4.52517V4.95302C86.6175 5.01342 87.0852 5.28524 87.3367 5.77349C87.5882 6.26175 87.729 7.33389 87.729 9.03524V24.0352C87.729 27.1007 87.5731 29.1141 87.2814 30.0302C86.9896 30.9664 86.4414 31.5906 85.682 31.9228L85.7021 32.3507C86.5621 32.3104 87.4021 32.2701 88.2219 32.255C89.0417 32.2349 89.8414 32.2349 90.6009 32.2349C91.4006 32.2349 92.1802 32.2349 92.9648 32.255C93.7444 32.2752 94.5089 32.3154 95.2683 32.3507L95.2885 31.9228C94.5843 31.6862 94.0965 31.1024 93.8249 30.1661C93.5533 29.2299 93.4175 27.2164 93.4175 24.1107V21.5537C93.513 21.3372 93.6136 21.1812 93.7494 21.0856C93.8651 20.9899 94.021 20.9295 94.197 20.9094C94.6447 20.9094 95.2683 22.2584 96.0731 24.9312C96.8728 27.6292 97.7882 30.1057 98.8041 32.3909C99.6441 32.3305 100.539 32.2953 101.5 32.2752C102.456 32.255 103.492 32.2349 104.603 32.2349H104.93L104.935 32.3507C105.795 32.3104 106.635 32.2701 107.455 32.255C108.275 32.2349 109.075 32.2349 109.834 32.2349C110.634 32.2349 111.413 32.2349 112.198 32.255C112.978 32.2752 113.742 32.3154 114.501 32.3507L114.522 31.9228C113.802 31.6913 113.314 31.1074 113.043 30.151Z" fill="#09331A"></path><path d="M122.624 7.99832C122.624 6.61409 122.685 5.75336 122.82 5.38087C122.956 5.00839 123.193 4.83221 123.545 4.83221C123.972 4.83221 124.284 5.08389 124.46 5.61242C124.636 6.14094 124.772 7.29362 124.852 9.07047H125.421L126.613 3.30705C126.165 3.21141 125.753 3.13087 125.386 3.07047C125.018 3.01007 124.656 3 124.344 3C122.101 3 120.381 3.68456 119.194 5.06879C117.982 6.45302 117.263 8.56711 117.026 11.396H115.095L114.627 13.0772H116.951V24.0352C116.951 27.1007 116.795 29.1141 116.503 30.0302C116.212 30.9664 115.663 31.5906 114.904 31.9228L114.924 32.3507C115.452 32.3104 116.056 32.2701 116.699 32.255C117.343 32.2349 118.279 32.2349 119.551 32.2349C120.824 32.2349 121.774 32.2349 122.418 32.255C123.062 32.2752 123.645 32.3154 124.173 32.3507V31.9228C123.605 31.6711 123.198 31.1024 122.981 30.2617C122.75 29.4211 122.629 27.7601 122.629 25.2836V13.0772H125.049L125.536 11.396H122.629V7.99832H122.624Z" fill="#09331A"></path><path d="M142.999 30.2668C142.803 29.7584 142.707 29.0185 142.707 28.0419V20.245C142.707 16.8473 142.124 14.4262 140.932 12.9966C139.74 11.5721 137.768 10.8675 134.997 10.8675C133.614 10.8675 132.246 11.0235 130.938 11.3557C129.63 11.6879 128.343 12.1762 127.096 12.8406L128.403 19.0319H129.047C129.751 16.6862 130.531 14.9295 131.371 13.7768C132.211 12.6242 133.126 12.0403 134.122 12.0403C135.057 12.0403 135.782 12.4883 136.31 13.3893C136.838 14.2852 137.089 15.5587 137.089 17.1997V19.4245C136.913 19.4245 136.737 19.4245 136.561 19.4044C136.365 19.4044 136.093 19.4044 135.721 19.4044C132.462 19.4044 129.962 19.9883 128.247 21.1812C126.512 22.3742 125.652 24.0906 125.652 26.3557C125.652 28.3087 126.256 29.9094 127.488 31.1426C128.715 32.3708 130.299 33 132.251 33C133.463 33 134.494 32.7483 135.334 32.2198C136.174 31.6913 136.913 30.8708 137.522 29.7181L138.05 32.2399C138.91 32.1997 139.554 32.1795 139.961 32.1594C140.369 32.1594 140.741 32.1594 141.073 32.1594C141.465 32.1594 141.872 32.1594 142.32 32.1795C142.748 32.1997 143.296 32.2198 143.98 32.2399L144 31.6711C143.527 31.2433 143.195 30.7752 142.999 30.2668ZM137.084 23.995C137.084 26.1997 136.813 27.9413 136.285 29.1695C135.736 30.4178 134.997 31.0419 134.082 31.0419C133.357 31.0419 132.774 30.6493 132.326 29.8893C131.879 29.1292 131.642 28.1124 131.642 26.844C131.642 24.755 132.09 23.2097 133.01 22.1779C133.911 21.1409 135.274 20.6326 137.089 20.6326V23.995H137.084Z" fill="#09331A"></path></svg>